# Blender v2.90.1 OBJ File: ''
# www.blender.org
mtllib ROCK.mtl
o Icosphere
v 0.000000 -1.000000 0.000000
v 1.074256 -0.447220 0.951511
v -0.410321 -0.447220 1.539591
v -1.327851 -0.447216 0.000000
v -0.410321 -0.447220 -1.539591
v 1.074256 -0.447220 -0.951511
v 0.410321 0.447220 1.474519
v -1.074256 0.447220 0.951511
v -1.074256 0.447220 -0.951511
v 0.410321 0.447220 -1.539591
v 1.188013 0.383594 0.000000
v -0.005482 0.933849 0.000000
v -0.241179 -0.850654 0.904942
v 0.631427 -0.850654 0.559280
v 0.390251 -0.525738 1.464231
v 1.262859 -0.525736 0.000000
v 0.631427 -0.850654 -0.559280
v -0.780490 -0.850652 0.000000
v -1.021675 -0.525736 0.904945
v -0.241179 -0.850654 -0.904942
v -1.021675 -0.525736 -0.904945
v 0.390251 -0.525738 -1.464231
v 1.411926 0.000000 0.559282
v 1.411926 0.000000 -0.559282
v 0.000000 0.000000 1.809901
v 0.872617 0.000000 1.464240
v -1.411926 0.000000 0.559282
v -0.872617 0.000000 1.464240
v -0.872617 0.000000 -1.464240
v -1.411926 0.000000 -0.559282
v 0.872617 0.000000 -1.464240
v 0.000000 0.000000 -1.809901
v 1.021675 0.525736 0.904945
v -0.390251 0.525738 1.075954
v -1.325015 0.525736 0.000000
v -0.390251 0.525738 -1.277748
v 1.021675 0.525736 -0.904945
v 0.241179 0.850654 0.904942
v 0.780490 0.850652 0.000000
v -0.631427 0.850654 0.559280
v -0.631427 0.774130 -0.559280
v -0.053868 0.805582 -0.904942
vt 0.818181 0.000000
vt 0.772726 0.078731
vt 0.863635 0.078731
vt 0.727272 0.157461
vt 0.681818 0.078731
vt 0.636363 0.157461
vt 0.090909 0.000000
vt 0.045454 0.078731
vt 0.136363 0.078731
vt 0.272727 0.000000
vt 0.227273 0.078731
vt 0.318182 0.078731
vt 0.454545 0.000000
vt 0.409090 0.078731
vt 0.500000 0.078731
vt 0.681818 0.236191
vt 0.909090 0.157461
vt 0.818181 0.157461
vt 0.863635 0.236191
vt 0.181818 0.157461
vt 0.090909 0.157461
vt 0.136363 0.236191
vt 0.363636 0.157461
vt 0.272727 0.157461
vt 0.318182 0.236191
vt 0.545454 0.157461
vt 0.454545 0.157461
vt 0.500000 0.236191
vt 0.772726 0.236191
vt 0.954545 0.236191
vt 0.227273 0.236191
vt 0.409090 0.236191
vt 0.590909 0.236191
vt 0.818181 0.314921
vt 0.727272 0.314921
vt 0.772726 0.393651
vt 1.000000 0.314921
vt 0.909091 0.314921
vt 0.954545 0.393651
vt 0.272727 0.314921
vt 0.181818 0.314921
vt 0.227273 0.393651
vt 0.454545 0.314921
vt 0.363636 0.314921
vt 0.409090 0.393651
vt 0.636363 0.314921
vt 0.545454 0.314921
vt 0.590909 0.393651
vt 0.500000 0.393651
vt 0.545454 0.472382
vt 0.318182 0.393651
vt 0.363636 0.472382
vt 0.136363 0.393651
vt 0.181818 0.472382
vt 0.090909 0.314921
vt 0.863635 0.393651
vt 0.909090 0.472382
vt 0.681818 0.393651
vt 0.727272 0.472382
vt 0.045454 0.236191
vt 0.000000 0.157461
vt 0.590909 0.078731
vt 0.636363 0.000000
vn 0.0717 -0.9809 0.1810
vn 0.5710 -0.8011 0.1793
vn -0.1868 -0.9761 0.1113
vn -0.1868 -0.9761 -0.1113
vn 0.0717 -0.9809 -0.1810
vn 0.8598 -0.4660 0.2089
vn 0.0270 -0.5351 0.8443
vn -0.8487 -0.4679 0.2465
vn -0.5902 -0.5038 -0.6308
vn 0.5533 -0.5077 -0.6604
vn 0.8424 -0.1958 0.5020
vn -0.3594 -0.2186 0.9072
vn -0.9828 -0.1848 0.0000
vn -0.3594 -0.2186 -0.9072
vn 0.8424 -0.1958 -0.5020
vn 0.3382 0.8124 0.4750
vn -0.1969 0.7859 0.5861
vn -0.4656 0.8635 -0.1940
vn -0.0951 0.8354 -0.5413
vn 0.7530 0.6570 -0.0352
vn 0.1042 0.9839 -0.1450
vn 0.2425 0.9318 -0.2700
vn 0.2367 0.9099 -0.3406
vn -0.1326 0.9823 -0.1321
vn -0.2853 0.8722 -0.3973
vn -0.2898 0.8703 -0.3982
vn -0.1901 0.9795 -0.0670
vn -0.3812 0.9223 -0.0631
vn -0.5492 0.8085 0.2115
vn -0.0406 0.9939 0.1024
vn -0.2352 0.7695 0.5937
vn -0.2275 0.7615 0.6069
vn 0.1051 0.9925 0.0626
vn 0.3746 0.8999 0.2233
vn 0.7530 0.6570 0.0352
vn 0.8204 0.5685 -0.0615
vn 0.8226 0.2883 -0.4902
vn 0.5902 0.5038 -0.6308
vn -0.1858 0.6275 -0.7561
vn -0.3063 0.5553 -0.7732
vn -0.3975 0.6084 -0.6870
vn -0.8668 0.4235 -0.2634
vn -0.9866 0.1631 0.0000
vn -0.8668 0.4235 0.2634
vn -0.2051 0.6962 0.6879
vn -0.2572 0.7156 0.6494
vn -0.2525 0.7180 0.6486
vn 0.5360 0.5391 0.6496
vn 0.8226 0.2883 0.4902
vn 0.8204 0.5685 0.0615
vn 0.3594 0.2186 -0.9072
vn 0.3489 -0.3201 -0.8808
vn 0.0270 -0.5351 -0.8443
vn -0.8424 0.1958 -0.5020
vn -0.8226 -0.2883 -0.4902
vn -0.8487 -0.4679 -0.2465
vn -0.8424 0.1958 0.5020
vn -0.8226 -0.2883 0.4902
vn -0.5902 -0.5038 0.6308
vn 0.3466 0.3382 0.8749
vn 0.3489 -0.3201 0.8808
vn 0.5533 -0.5077 0.6604
vn 0.8636 0.5041 0.0000
vn 0.9621 -0.2728 0.0000
vn 0.8598 -0.4660 -0.2089
vn 0.3961 -0.8256 -0.4020
vn 0.1460 -0.9181 -0.3685
vn -0.0332 -0.8474 -0.5298
vn -0.3459 -0.8308 -0.4360
vn -0.3746 -0.8999 -0.2233
vn -0.5883 -0.7982 -0.1298
vn -0.5883 -0.7982 0.1298
vn -0.3746 -0.8999 0.2233
vn -0.3459 -0.8308 0.4360
vn 0.5710 -0.8011 -0.1793
vn 0.4576 -0.8892 0.0000
vn 0.2302 -0.9732 0.0000
vn -0.0332 -0.8474 0.5298
vn 0.1460 -0.9181 0.3685
vn 0.3961 -0.8256 0.4020
usemtl None
s off
f 1/1/1 14/2/1 13/3/1
f 2/4/2 14/5/2 16/6/2
f 1/7/3 13/8/3 18/9/3
f 1/10/4 18/11/4 20/12/4
f 1/13/5 20/14/5 17/15/5
f 2/4/6 16/6/6 23/16/6
f 3/17/7 15/18/7 25/19/7
f 4/20/8 19/21/8 27/22/8
f 5/23/9 21/24/9 29/25/9
f 6/26/10 22/27/10 31/28/10
f 2/4/11 23/16/11 26/29/11
f 3/17/12 25/19/12 28/30/12
f 4/20/13 27/22/13 30/31/13
f 5/23/14 29/25/14 32/32/14
f 6/26/15 31/28/15 24/33/15
f 7/34/16 33/35/16 38/36/16
f 8/37/17 34/38/17 40/39/17
f 9/40/18 35/41/18 41/42/18
f 10/43/19 36/44/19 42/45/19
f 11/46/20 37/47/20 39/48/20
f 39/48/21 42/49/21 12/50/21
f 39/48/22 37/47/22 42/49/22
f 37/47/23 10/43/23 42/49/23
f 42/45/24 41/51/24 12/52/24
f 42/45/25 36/44/25 41/51/25
f 36/44/26 9/40/26 41/51/26
f 41/42/27 40/53/27 12/54/27
f 41/42/28 35/41/28 40/53/28
f 35/41/29 8/55/29 40/53/29
f 40/39/30 38/56/30 12/57/30
f 40/39/31 34/38/31 38/56/31
f 34/38/32 7/34/32 38/56/32
f 38/36/33 39/58/33 12/59/33
f 38/36/34 33/35/34 39/58/34
f 33/35/35 11/46/35 39/58/35
f 24/33/36 37/47/36 11/46/36
f 24/33/37 31/28/37 37/47/37
f 31/28/38 10/43/38 37/47/38
f 32/32/39 36/44/39 10/43/39
f 32/32/40 29/25/40 36/44/40
f 29/25/41 9/40/41 36/44/41
f 30/31/42 35/41/42 9/40/42
f 30/31/43 27/22/43 35/41/43
f 27/22/44 8/55/44 35/41/44
f 28/30/45 34/38/45 8/37/45
f 28/30/46 25/19/46 34/38/46
f 25/19/47 7/34/47 34/38/47
f 26/29/48 33/35/48 7/34/48
f 26/29/49 23/16/49 33/35/49
f 23/16/50 11/46/50 33/35/50
f 31/28/51 32/32/51 10/43/51
f 31/28/52 22/27/52 32/32/52
f 22/27/53 5/23/53 32/32/53
f 29/25/54 30/31/54 9/40/54
f 29/25/55 21/24/55 30/31/55
f 21/24/56 4/20/56 30/31/56
f 27/22/57 28/60/57 8/55/57
f 27/22/58 19/21/58 28/60/58
f 19/21/59 3/61/59 28/60/59
f 25/19/60 26/29/60 7/34/60
f 25/19/61 15/18/61 26/29/61
f 15/18/62 2/4/62 26/29/62
f 23/16/63 24/33/63 11/46/63
f 23/16/64 16/6/64 24/33/64
f 16/6/65 6/26/65 24/33/65
f 17/15/66 22/27/66 6/26/66
f 17/15/67 20/14/67 22/27/67
f 20/14/68 5/23/68 22/27/68
f 20/12/69 21/24/69 5/23/69
f 20/12/70 18/11/70 21/24/70
f 18/11/71 4/20/71 21/24/71
f 18/9/72 19/21/72 4/20/72
f 18/9/73 13/8/73 19/21/73
f 13/8/74 3/61/74 19/21/74
f 16/6/75 17/62/75 6/26/75
f 16/6/76 14/5/76 17/62/76
f 14/5/77 1/63/77 17/62/77
f 13/3/78 15/18/78 3/17/78
f 13/3/79 14/2/79 15/18/79
f 14/2/80 2/4/80 15/18/80
